<svg xmlns="http://www.w3.org/2000/svg" version="1.1" xmlns:xlink="http://www.w3.org/1999/xlink" xmlns:svgjs="http://svgjs.dev/svgjs" width="1500" height="1500" viewBox="0 0 1500 1500"><rect width="1500" height="1500" fill="#000000"></rect><g transform="matrix(0.6666666666666666,0,0,0.6666666666666666,249.39393939393938,435.99032258064517)"><svg viewBox="0 0 396 248" data-background-color="#ffffff" preserveAspectRatio="xMidYMid meet" height="939" width="1500" xmlns="http://www.w3.org/2000/svg" xmlns:xlink="http://www.w3.org/1999/xlink"><g id="tight-bounds" transform="matrix(1,0,0,1,0.2400000000000091,0.4000000000000057)"><svg viewBox="0 0 395.52 247.2" height="247.2" width="395.52"><g><svg></svg></g><g><svg viewBox="0 0 395.52 247.2" height="247.2" width="395.52"><g transform="matrix(1,0,0,1,104.00287183949555,47.215199999999996)"><svg viewBox="0 0 187.51425632100887 152.7696" height="152.7696" width="187.51425632100887"><g><svg viewBox="0 0 244.43135999999998 199.14049111407365" height="152.7696" width="187.51425632100887"><g transform="matrix(1,0,0,1,0,121.12455360626396)"><svg viewBox="0 0 244.43135999999998 78.0159375078097" height="78.0159375078097" width="244.43135999999998"><g id="textblocktransform"><svg viewBox="0 0 244.43135999999998 78.0159375078097" height="78.0159375078097" width="244.43135999999998" id="textblock"><g><svg viewBox="0 0 244.43135999999998 56.36544151235597" height="56.36544151235597" width="244.43135999999998"><g transform="matrix(1,0,0,1,0,0)"><svg width="244.43135999999998" viewBox="2.05 -36.25 159.36136752136753 36.75" height="56.36544151235597" data-palette-color="#000000"><path d="M14.55 0.5L14.55 0.5Q11 0.5 8.15-0.88 5.3-2.25 3.68-4.67 2.05-7.1 2.05-10.2L2.05-10.2Q2.05-11.4 2.83-12.13 3.6-12.85 4.65-12.85L4.65-12.85Q5.45-12.85 6.1-12.35 6.75-11.85 6.9-10.85L6.9-10.85Q7.6-4.4 15.2-4.4L15.2-4.4Q18.85-4.4 20.95-6 23.05-7.6 23.05-10.1L23.05-10.1Q23.05-11.6 21.6-12.63 20.15-13.65 17.65-14.45L17.65-14.45 16.1-15Q11.15-16.65 9-17.7L9-17.7Q5.9-19.25 4.38-21.35 2.85-23.45 2.85-26.3L2.85-26.3Q2.85-28.8 4.45-31.1 6.05-33.4 8.93-34.83 11.8-36.25 15.35-36.25L15.35-36.25Q19.05-36.25 21.95-34.9 24.85-33.55 26.45-31.3 28.05-29.05 28.05-26.5L28.05-26.5Q28.05-25.2 27.33-24.48 26.6-23.75 25.55-23.75L25.55-23.75Q24.55-23.75 23.85-24.48 23.15-25.2 23.15-26.4L23.15-26.4Q23.15-27.65 22.08-28.83 21-30 19.18-30.73 17.35-31.45 15.2-31.45L15.2-31.45Q11.5-31.45 9.7-30.18 7.9-28.9 7.8-26.65L7.8-26.65Q7.75-25.45 8.55-24.55 9.35-23.65 11.05-22.7L11.05-22.7Q12.65-21.85 14.45-21.13 16.25-20.4 19.25-19.4L19.25-19.4Q23.25-18.05 25.63-15.88 28-13.7 28-10.25L28-10.25Q28-7.05 26.1-4.6 24.2-2.15 21.13-0.83 18.05 0.5 14.55 0.5L14.55 0.5ZM46.5-2.5L46.5-2.5Q46.5-1.45 45.75-0.75 45-0.05 43.95-0.05 42.9-0.05 42.2-0.8 41.5-1.55 41.5-2.6L41.5-2.6Q41.55-4.35 41.45-16.75L41.45-16.75Q41.4-25.8 41.75-30.75L41.75-30.75Q36.3-30.8 32.55-30.65L32.55-30.65Q31.5-30.6 30.75-31.33 30-32.05 29.95-33.08 29.9-34.1 30.62-34.85 31.35-35.6 32.35-35.65L32.35-35.65Q36.65-35.8 44.3-35.75 51.95-35.7 56.25-35.75L56.25-35.75Q57.3-35.75 58.05-35.05 58.8-34.35 58.8-33.3 58.8-32.25 58.1-31.5 57.4-30.75 56.35-30.75L56.35-30.75Q52.8-30.7 46.75-30.7L46.75-30.7Q46.4-25.9 46.45-16.8L46.45-16.8Q46.55-4.35 46.5-2.5L46.5-2.5ZM71.8 0.15L71.8 0.15Q69.19-0.2 67.05-1.23 64.89-2.25 63.4-3.75 61.9-5.25 60.77-7.15 59.65-9.05 59.17-11.13 58.7-13.2 58.52-15.4 58.34-17.6 58.59-19.65L58.59-19.65Q58.9-22.25 59.77-24.7 60.65-27.15 62.15-29.33 63.65-31.5 65.62-33.02 67.59-34.55 70.25-35.25 72.89-35.95 75.55-36.05L75.55-36.05Q76.75-36.1 78.05-35.95L78.05-35.95Q80.5-35.65 82-35.15L82-35.15Q85.44-34 87.72-31.63 90-29.25 91-26.38 92-23.5 92.02-20.28 92.05-17.05 91.27-13.95 90.5-10.85 88.9-8 87.3-5.15 84.69-3.13 82.09-1.1 78.72-0.23 75.34 0.65 71.8 0.15L71.8 0.15ZM72.55-4.95L72.55-4.95Q77.19-4.1 81.19-6.9L81.19-6.9Q85.25-9.7 86.5-15.3L86.5-15.3Q87.25-18.7 86.84-21.73 86.44-24.75 84.75-27.03 83.05-29.3 80.65-30.25L80.65-30.25Q79.5-30.7 78.82-30.85 78.15-31 77.19-31L77.19-31Q76.44-31 75.55-31.05L75.55-31.05Q74.59-31.1 73.05-30.9L73.05-30.9Q70.19-30.55 67.19-27.38 64.19-24.2 63.65-19.1L63.65-19.1Q63.25-15.55 64.02-12.45 64.8-9.35 67.05-7.45L67.05-7.45Q69.25-5.6 72.55-4.95L72.55-4.95ZM100.19-5.85L100.19-5.85Q98.74-8 98.24-12.25L98.24-12.25Q97.94-15.4 98.09-19.7L98.09-19.7Q98.19-22.5 98.52-27.25 98.84-32 98.89-33.4L98.89-33.4Q98.89-34.45 99.64-35.15 100.39-35.85 101.44-35.85 102.49-35.85 103.19-35.1 103.89-34.35 103.89-33.3L103.89-33.3Q103.84-31.95 103.52-27.15 103.19-22.35 103.09-19.55L103.09-19.55Q102.94-15.55 103.24-12.8L103.24-12.8Q103.54-9.75 104.29-8.65L104.29-8.65Q106.04-6.15 109.04-5.33 112.04-4.5 115.02-5.55 117.99-6.6 119.64-9.15L119.64-9.15Q122.34-13.15 122.49-20.1L122.49-20.1Q122.54-22.6 122.34-26.7L122.34-26.7Q122.04-32 121.99-33.3L121.99-33.3Q121.99-34.35 122.69-35.1 123.39-35.85 124.44-35.85 125.49-35.85 126.24-35.15 126.99-34.45 126.99-33.4L126.99-33.4Q127.04-32.2 127.29-27L127.29-27Q127.54-22.7 127.49-19.95L127.49-19.95Q127.29-11.6 123.84-6.35L123.84-6.35Q121.94-3.5 118.77-1.85 115.59-0.2 112.24 0 108.89 0.2 105.59-1.28 102.29-2.75 100.19-5.85L100.19-5.85ZM135.79-2.35L135.79-2.35Q135.79-2.85 135.44-17.1L135.44-17.1Q135.24-26.95 135.74-33.1L135.74-33.1Q135.84-34.15 136.62-34.8 137.39-35.45 138.44-35.4L138.44-35.4Q138.94-35.35 139.39-35.1L139.39-35.1Q145.24-36.3 149.94-35.65L149.94-35.65Q158.19-34.5 160.64-28.15L160.64-28.15Q161.59-25.1 161.37-23.18 161.14-21.25 160.22-19.73 159.29-18.2 157.87-17.25 156.44-16.3 154.99-15.73 153.54-15.15 151.89-14.85L151.89-14.85Q146.79-13.8 140.54-14.5L140.54-14.5Q140.79-4.9 140.79-2.35L140.79-2.35Q140.79-1.3 140.07-0.58 139.34 0.15 138.29 0.15 137.24 0.15 136.52-0.58 135.79-1.3 135.79-2.35L135.79-2.35ZM140.44-19.45L140.44-19.45Q140.74-19.5 141.09-19.5L141.09-19.5Q146.54-18.85 150.89-19.75L150.89-19.75Q156.04-20.8 156.39-23.75L156.39-23.75Q156.49-24.45 155.94-26.35L155.94-26.35Q154.59-29.95 149.29-30.7L149.29-30.7Q145.49-31.2 140.59-30.25L140.59-30.25Q140.34-25.85 140.44-19.45L140.44-19.45Z" opacity="1" transform="matrix(1,0,0,1,0,0)" fill="#ffffff" class="wordmark-text-0" data-fill-palette-color="primary" id="text-0"></path></svg></g></svg></g><g transform="matrix(1,0,0,1,46.68638976,69.67196948282692)"><svg viewBox="0 0 151.05858048 8.343968024982779" height="8.343968024982779" width="151.05858048"><g transform="matrix(1,0,0,1,0,0)"><svg width="151.05858048" viewBox="2 -32.35 783.81 43.3" height="8.343968024982779" data-palette-color="#000000"><path d="M4.7-7.35L5.6-7.1 5.35-4.8Q9.25-2.55 12.3-2.55 15.35-2.55 17.1-3.8 18.85-5.05 18.85-7.08 18.85-9.1 17.7-10.53 16.55-11.95 14.8-12.7 13.05-13.45 11.03-14.38 9-15.3 7.25-16.18 5.5-17.05 4.35-18.75 3.2-20.45 3.2-22.8L3.2-22.8Q3.2-26.45 6.23-28.73 9.25-31 14.05-31L14.05-31Q17-31 20.1-30.05L20.1-30.05 20.45-31.35 21.4-31.35 21-22.9 20.05-22.9 19.7-25.05Q15.45-27.85 12.25-27.85L12.25-27.85Q10.05-27.85 8.85-26.88 7.65-25.9 7.65-23.95 7.65-22 9.2-20.6 10.75-19.2 12.98-18.35 15.2-17.5 17.43-16.53 19.65-15.55 21.2-13.63 22.75-11.7 22.75-8.8L22.75-8.8Q22.75-4.4 19.5-1.83 16.25 0.75 10.8 0.75L10.8 0.75Q7.6 0.75 3.6-0.4L3.6-0.4 2.9 0.7 2 0.4 4.7-7.35ZM37.35-2.05L37.35-2.05Q42.65-2.05 42.65-9.4L42.65-9.4Q42.65-17.9 36.5-17.9L36.5-17.9Q33.75-17.9 32.52-16.18 31.3-14.45 31.3-10.3L31.3-10.3Q31.3-2.05 37.35-2.05ZM36.85 0.75Q32.2 0.75 29.6-1.98 27-4.7 27-9.68 27-14.65 29.75-17.68 32.5-20.7 37.17-20.7 41.85-20.7 44.42-18.03 47-15.35 47-10.33 47-5.3 44.25-2.27 41.5 0.75 36.85 0.75ZM51.25-29.2L51.3-30.15 57.75-30.7 57.25-21.3 57.25-8.85 57.65-1.3 59.15-0.95 59.1 0 51.5 0 51.45-0.95 52.95-1.3 53.4-8.85 53.4-21.3 52.95-28.85 51.25-29.2ZM65.54-6.45L65.54-11.05 65.09-18.6 63.39-18.95 63.44-19.9 69.89-20.45 69.39-11.05 69.39-6.65Q69.39-4.75 70.47-3.73 71.54-2.7 73.89-2.7 76.24-2.7 78.59-4.5L78.59-4.5 78.84-8.9 78.84-11.05 78.39-18.6 76.69-18.95 76.74-19.9 83.19-20.45 82.69-11.05 82.69-8.9 83.14-1.35 84.84-1 84.79-0.05 78.34 0.5 78.44-1.8Q75.14 0.75 71.97 0.75 68.79 0.75 67.17-1.15 65.54-3.05 65.54-6.45L65.54-6.45ZM88.24-31.9L88.49-30.45 94.84-30.1 102.09-30.1 108.44-30.45 108.69-31.9 109.64-31.9 109.84-24.8 108.89-24.8 108.44-26.75 100.94-27 100.49-20.35 100.49-9.85 101.09-1.3 103.34-0.95 103.29 0 93.74 0 93.69-0.95 95.94-1.3 96.54-9.9 96.54-20.4 96.04-27 88.49-26.75 88.04-24.8 87.09-24.8 87.29-31.9 88.24-31.9ZM120.19 0L112.59 0 112.54-0.95 114.04-1.3 114.49-8.85 114.49-11.05 114.04-18.6 112.34-18.95 112.39-19.9 118.84-20.45 118.34-11.05 118.34-8.85 118.74-1.3 120.24-0.95 120.19 0ZM119.79-27.65L119.79-27.65Q119.04-25.35 116.44-24.3L116.44-24.3Q114.04-25.1 113.09-27.65L113.09-27.65Q114.09-30.2 116.44-31L116.44-31Q117.84-30.4 118.61-29.65 119.39-28.9 119.79-27.65ZM134.84-2.05L134.84-2.05Q140.14-2.05 140.14-9.4L140.14-9.4Q140.14-17.9 133.99-17.9L133.99-17.9Q131.24-17.9 130.01-16.18 128.79-14.45 128.79-10.3L128.79-10.3Q128.79-2.05 134.84-2.05ZM134.34 0.75Q129.69 0.75 127.09-1.98 124.49-4.7 124.49-9.68 124.49-14.65 127.24-17.68 129.99-20.7 134.66-20.7 139.34-20.7 141.91-18.03 144.49-15.35 144.49-10.33 144.49-5.3 141.74-2.27 138.99 0.75 134.34 0.75ZM157.33 0L148.98 0 148.93-0.95 150.43-1.3 150.88-8.85 150.88-11.05 150.43-18.6 148.73-18.95 148.78-19.9 155.23-20.45 155.08-18.15Q158.48-20.7 161.63-20.7 164.78-20.7 166.41-18.8 168.03-16.9 168.03-13.5L168.03-13.5 168.03-8.85 168.43-1.3 169.93-0.95 169.88 0 161.63 0 161.58-1.05 163.73-1.3 164.18-8.85 164.18-13.3Q164.18-15.2 163.11-16.23 162.03-17.25 159.76-17.25 157.48-17.25 154.98-15.45L154.98-15.45 154.73-11.05 154.73-8.85 155.13-1.3 157.38-1.05 157.33 0ZM203.83-0.05L197.63 0.4 197.63-1.65Q194.88 0.75 191.65 0.75 188.43 0.75 186.18-2.13 183.93-5 183.93-9.83 183.93-14.65 186.73-17.68 189.53-20.7 194.43-20.7L194.43-20.7Q196.03-20.7 197.88-20.3L197.88-20.3 197.88-21.4 197.43-28.85 195.23-29.2 195.28-30.15 202.23-30.7 201.73-21.35 201.73-8.9 202.18-1.35 203.88-1 203.83-0.05ZM189.6-16.13Q188.23-14.3 188.23-10.35 188.23-6.4 189.6-4.23 190.98-2.05 193.2-2.05 195.43-2.05 197.63-4.25L197.63-4.25 197.88-8.85 197.88-17.4Q195.48-17.95 193.93-17.95L193.93-17.95Q190.98-17.95 189.6-16.13ZM213.03-30.3L213.03-30.3 209.93-18.55 208.32-18.75Q208.13-30.2 208.13-30.3L208.13-30.3Q208.97-31.9 210.97-32.35L210.97-32.35Q212.68-31.8 213.03-30.3ZM225.67 0.75Q221.67 0.75 219.1-2 216.52-4.75 216.52-9.63 216.52-14.5 219.17-17.6 221.82-20.7 226.2-20.7 230.57-20.7 232.67-18.7 234.77-16.7 234.77-12.45L234.77-12.45Q234.77-11.25 234.62-9.9L234.62-9.9 220.82-9.9Q220.82-6.35 222.37-4.2 223.92-2.05 226.82-2.05 229.72-2.05 232.62-4.25L232.62-4.25 232.97-6.3 233.82-6.25 234.17 0.7 233.37 0.7 232.92-0.45Q229.67 0.75 225.67 0.75ZM220.92-12.5L220.92-12.5 230.62-12.55Q230.62-15.4 229.52-16.65 228.42-17.9 226.07-17.9L226.07-17.9Q221.42-17.9 220.92-12.5ZM272.52-0.95L272.47 0 264.22 0 264.17-1.05 266.32-1.3 266.77-8.85 266.77-13.3Q266.77-15.2 265.75-16.23 264.72-17.25 262.42-17.25 260.12-17.25 257.82-15.45L257.82-15.45 257.82-8.85 258.22-1.3 258.27-1.3 260.42-1.05 260.37 0 251.42 0 251.37-1.05 253.52-1.3 253.97-8.85 253.97-13.3Q253.97-15.2 252.95-16.23 251.92-17.25 249.72-17.25 247.52-17.25 245.27-15.45L245.27-15.45 245.02-11.05 245.02-8.85 245.42-1.3 245.47-1.3 247.62-1.05 247.57 0 239.27 0 239.22-0.95 240.72-1.3 241.17-8.85 241.17-11.05 240.72-18.6 239.02-18.95 239.07-19.9 245.52-20.45 245.37-18.15Q248.67-20.7 251.92-20.7 255.17-20.7 256.87-17.85L256.87-17.85Q260.82-20.7 264.57-20.7L264.57-20.7Q267.37-20.7 269-18.78 270.62-16.85 270.62-13.5L270.62-13.5 270.62-8.85 271.02-1.3 271.07-1.3 272.52-0.95ZM278.47 9L278.92 1.45 278.92-11.05 278.47-18.6 276.77-18.95 276.82-19.9 283.02-20.35 283.02-18.3Q285.72-20.7 288.97-20.7 292.22-20.7 294.47-17.82 296.72-14.95 296.72-10.13 296.72-5.3 293.92-2.27 291.12 0.75 286.22 0.75L286.22 0.75Q284.62 0.75 282.77 0.35L282.77 0.35 282.77 1.45 283.17 9 285.42 9.25 285.37 10.3 277.02 10.3 276.97 9.35 278.47 9ZM291.04-3.83Q292.42-5.65 292.42-9.6 292.42-13.55 291.04-15.73 289.67-17.9 287.39-17.9 285.12-17.9 283.02-15.7L283.02-15.7 282.77-11.1 282.77-2.55Q285.12-2 286.72-2L286.72-2Q289.67-2 291.04-3.83ZM300.96-29.2L301.01-30.15 307.46-30.7 306.96-21.3 306.96-8.85 307.36-1.3 308.86-0.95 308.81 0 301.21 0 301.16-0.95 302.66-1.3 303.11-8.85 303.11-21.3 302.66-28.85 300.96-29.2ZM323.46-2.05L323.46-2.05Q328.76-2.05 328.76-9.4L328.76-9.4Q328.76-17.9 322.61-17.9L322.61-17.9Q319.86-17.9 318.64-16.18 317.41-14.45 317.41-10.3L317.41-10.3Q317.41-2.05 323.46-2.05ZM322.96 0.75Q318.31 0.75 315.71-1.98 313.11-4.7 313.11-9.68 313.11-14.65 315.86-17.68 318.61-20.7 323.29-20.7 327.96-20.7 330.54-18.03 333.11-15.35 333.11-10.33 333.11-5.3 330.36-2.27 327.61 0.75 322.96 0.75ZM345.21 0L337.61 0 337.56-0.95 339.06-1.3 339.51-8.85 339.51-11.05 339.06-18.6 337.36-18.95 337.41-19.9 343.86-20.45 343.36-11.05 343.36-8.85 343.76-1.3 345.26-0.95 345.21 0ZM344.81-27.65L344.81-27.65Q344.06-25.35 341.46-24.3L341.46-24.3Q339.06-25.1 338.11-27.65L338.11-27.65Q339.11-30.2 341.46-31L341.46-31Q342.86-30.4 343.63-29.65 344.41-28.9 344.81-27.65ZM361.45 9L361.9 1.45 361.9-11.05 361.45-18.6 359.75-18.95 359.8-19.9 366-20.35 366-18.3Q368.7-20.7 371.95-20.7 375.2-20.7 377.45-17.82 379.7-14.95 379.7-10.13 379.7-5.3 376.9-2.27 374.1 0.75 369.2 0.75L369.2 0.75Q367.6 0.75 365.75 0.35L365.75 0.35 365.75 1.45 366.15 9 368.4 9.25 368.35 10.3 360 10.3 359.95 9.35 361.45 9ZM374.03-3.83Q375.4-5.65 375.4-9.6 375.4-13.55 374.03-15.73 372.65-17.9 370.38-17.9 368.1-17.9 366-15.7L366-15.7 365.75-11.1 365.75-2.55Q368.1-2 369.7-2L369.7-2Q372.65-2 374.03-3.83ZM398.08-27.7Q393.25-27.7 391.13-24.63 389-21.55 389-15.28 389-9 391.73-5.78 394.45-2.55 399.25-2.55 404.05-2.55 406.18-5.58 408.3-8.6 408.3-14.98 408.3-21.35 405.6-24.53 402.9-27.7 398.08-27.7ZM398.28 0.75Q391.6 0.75 387.9-3.38 384.2-7.5 384.2-14.85 384.2-22.2 388.25-26.6 392.3-31 399-31 405.7-31 409.4-26.9 413.1-22.8 413.1-15.45 413.1-8.1 409.03-3.68 404.95 0.75 398.28 0.75ZM419.75-6.45L419.75-11.05 419.3-18.6 417.6-18.95 417.65-19.9 424.1-20.45 423.6-11.05 423.6-6.65Q423.6-4.75 424.67-3.73 425.75-2.7 428.1-2.7 430.45-2.7 432.8-4.5L432.8-4.5 433.05-8.9 433.05-11.05 432.6-18.6 430.9-18.95 430.95-19.9 437.4-20.45 436.9-11.05 436.9-8.9 437.35-1.35 439.05-1 439-0.05 432.55 0.5 432.65-1.8Q429.35 0.75 426.17 0.75 423 0.75 421.37-1.15 419.75-3.05 419.75-6.45L419.75-6.45ZM443.3-18.95L443.35-19.9 449.8-20.45 449.6-17.15Q450.9-19.25 451.95-19.98 453-20.7 454.5-20.7 456-20.7 457.45-20.45L457.45-20.45 457.2-14.65 456.35-14.65 456-16.8Q454.55-17.3 453.57-17.3 452.6-17.3 451.75-16.8 450.9-16.3 449.5-14.75L449.5-14.75 449.3-11.05 449.3-8.85 449.7-1.3 452.7-0.95 452.65 0 443.55 0 443.5-0.95 445-1.3 445.45-8.85 445.45-11.05 445-18.6 443.3-18.95ZM470.04-18.95L470.09-19.9 476.54-20.45 476.04-11.05 476.04-1.2Q476.04 2.25 474.24 4.55L474.24 4.55 469.34 10.95 467.74 9.95 471.64 2.45 472.19-7.65 472.19-11.05 471.74-18.6 470.04-18.95ZM470.79-27.65L470.79-27.65Q472.34-29.8 474.14-31L474.14-31Q476.09-29.55 477.49-27.65L477.49-27.65Q475.89-25.45 474.14-24.3L474.14-24.3Q472.14-25.55 470.79-27.65ZM490.39 0.75Q486.39 0.75 483.81-2 481.24-4.75 481.24-9.63 481.24-14.5 483.89-17.6 486.54-20.7 490.91-20.7 495.29-20.7 497.39-18.7 499.49-16.7 499.49-12.45L499.49-12.45Q499.49-11.25 499.34-9.9L499.34-9.9 485.54-9.9Q485.54-6.35 487.09-4.2 488.64-2.05 491.54-2.05 494.44-2.05 497.34-4.25L497.34-4.25 497.69-6.3 498.54-6.25 498.89 0.7 498.09 0.7 497.64-0.45Q494.39 0.75 490.39 0.75ZM485.64-12.5L485.64-12.5 495.34-12.55Q495.34-15.4 494.24-16.65 493.14-17.9 490.79-17.9L490.79-17.9Q486.14-17.9 485.64-12.5ZM512.64-29.2L510.64-28.95 510.04-20.35 510.04-14.85Q510.04-8.25 511.66-5.4 513.29-2.55 517.16-2.55 521.04-2.55 522.79-5.05 524.54-7.55 524.54-13.2L524.54-13.2 524.54-20.4 523.99-28.95 521.99-29.2 522.04-30.25 530.54-30.25 530.59-29.3 529.09-28.95 528.49-20.35 528.49-13.75Q528.49 0.75 516.74 0.75L516.74 0.75Q506.09 0.75 506.09-13.15L506.09-13.15 506.09-20.4 505.49-28.95 503.99-29.3 504.04-30.25 512.59-30.25 512.64-29.2ZM543.93 0L535.58 0 535.53-0.95 537.03-1.3 537.48-8.85 537.48-11.05 537.03-18.6 535.33-18.95 535.38-19.9 541.83-20.45 541.68-18.15Q545.08-20.7 548.23-20.7 551.38-20.7 553.01-18.8 554.63-16.9 554.63-13.5L554.63-13.5 554.63-8.85 555.03-1.3 556.53-0.95 556.48 0 548.23 0 548.18-1.05 550.33-1.3 550.78-8.85 550.78-13.3Q550.78-15.2 549.71-16.23 548.63-17.25 546.36-17.25 544.08-17.25 541.58-15.45L541.58-15.45 541.33-11.05 541.33-8.85 541.73-1.3 543.98-1.05 543.93 0ZM569.68 0.75Q565.68 0.75 563.11-2 560.53-4.75 560.53-9.63 560.53-14.5 563.18-17.6 565.83-20.7 570.21-20.7 574.58-20.7 576.68-18.7 578.78-16.7 578.78-12.45L578.78-12.45Q578.78-11.25 578.63-9.9L578.63-9.9 564.83-9.9Q564.83-6.35 566.38-4.2 567.93-2.05 570.83-2.05 573.73-2.05 576.63-4.25L576.63-4.25 576.98-6.3 577.83-6.25 578.18 0.7 577.38 0.7 576.93-0.45Q573.68 0.75 569.68 0.75ZM564.93-12.5L564.93-12.5 574.63-12.55Q574.63-15.4 573.53-16.65 572.43-17.9 570.08-17.9L570.08-17.9Q565.43-17.9 564.93-12.5ZM583.83 0.05L583.83 0.05 583.03 1.05 582.28 0.8 584.33-5.35 585.13-5.2 584.93-3.15Q587.48-2.05 589.58-2.05 591.68-2.05 592.78-2.8 593.88-3.55 593.88-4.8 593.88-6.05 592.73-6.88 591.58-7.7 589.93-8.33 588.28-8.95 586.65-9.7 585.03-10.45 583.88-11.8 582.73-13.15 582.73-15.33 582.73-17.5 585.13-19.1 587.53-20.7 591.23-20.7L591.23-20.7Q593.38-20.7 595.58-20.15L595.58-20.15 596.03-21.3 596.83-21.3 596.53-14.6 595.68-14.65 595.43-16.5Q591.98-18 589.88-18L589.88-18Q586.43-18 586.43-15.7L586.43-15.7Q586.43-14.7 587.6-13.95 588.78-13.2 590.43-12.6 592.08-12 593.73-11.25 595.38-10.5 596.55-9.1 597.73-7.7 597.73-5.75L597.73-5.75Q597.73-2.8 595.28-1.03 592.83 0.75 588.78 0.75L588.78 0.75Q586.53 0.75 583.83 0.05ZM631.62-0.05L625.42 0.4 625.42-1.65Q622.67 0.75 619.45 0.75 616.22 0.75 613.97-2.13 611.72-5 611.72-9.83 611.72-14.65 614.52-17.68 617.32-20.7 622.22-20.7L622.22-20.7Q623.82-20.7 625.67-20.3L625.67-20.3 625.67-21.4 625.22-28.85 623.02-29.2 623.07-30.15 630.02-30.7 629.52-21.35 629.52-8.9 629.97-1.35 631.67-1 631.62-0.05ZM617.4-16.13Q616.02-14.3 616.02-10.35 616.02-6.4 617.4-4.23 618.77-2.05 621-2.05 623.22-2.05 625.42-4.25L625.42-4.25 625.67-8.85 625.67-17.4Q623.27-17.95 621.72-17.95L621.72-17.95Q618.77-17.95 617.4-16.13ZM644.02 0L636.42 0 636.37-0.95 637.87-1.3 638.32-8.85 638.32-11.05 637.87-18.6 636.17-18.95 636.22-19.9 642.67-20.45 642.17-11.05 642.17-8.85 642.57-1.3 644.07-0.95 644.02 0ZM643.62-27.65L643.62-27.65Q642.87-25.35 640.27-24.3L640.27-24.3Q637.87-25.1 636.92-27.65L636.92-27.65Q637.92-30.2 640.27-31L640.27-31Q641.67-30.4 642.45-29.65 643.22-28.9 643.62-27.65ZM649.32-0.95L650.82-1.3 651.42-9.9 651.42-20.4 650.82-28.9 649.32-29.25 649.37-30.2Q658.47-30.4 659.92-30.4L659.92-30.4Q670.97-30.4 670.97-21.2L670.97-21.2Q670.97-16.5 667.57-14.03 664.17-11.55 657.42-11.55L657.42-11.55 655.42-11.55 655.42-9.85 656.02-1.3 658.02-1.05 657.97 0 649.37 0 649.32-0.95ZM659.52-27.4L659.52-27.4Q657.57-27.4 655.87-26.85L655.87-26.85 655.42-20.35 655.42-15Q656.17-14.8 658.62-14.8L658.62-14.8Q662.77-14.8 664.54-16.23 666.32-17.65 666.32-20.95L666.32-20.95Q666.32-27.4 659.52-27.4ZM674.72-29.2L674.77-30.15 681.22-30.7 680.72-21.3 680.72-8.85 681.12-1.3 682.62-0.95 682.57 0 674.97 0 674.92-0.95 676.42-1.3 676.87-8.85 676.87-21.3 676.42-28.85 674.72-29.2ZM696.71 0.75Q692.06 0.75 689.46-1.98 686.86-4.7 686.86-9.68 686.86-14.65 689.61-17.68 692.36-20.7 697.04-20.7 701.71-20.7 704.29-18.03 706.86-15.35 706.86-10.33 706.86-5.3 704.11-2.27 701.36 0.75 696.71 0.75ZM697.21-2.05L697.21-2.05Q702.51-2.05 702.51-9.4L702.51-9.4Q702.51-17.9 696.36-17.9L696.36-17.9Q693.61-17.9 692.39-16.18 691.16-14.45 691.16-10.3L691.16-10.3Q691.16-2.05 697.21-2.05ZM697.01-27.25L691.36-24.05 690.56-24.8 696.31-31.3 697.66-31.3 703.41-24.8 702.61-24.05 697.01-27.25ZM744.61-0.95L744.56 0 736.31 0 736.26-1.05 738.41-1.3 738.86-8.85 738.86-13.3Q738.86-15.2 737.84-16.23 736.81-17.25 734.51-17.25 732.21-17.25 729.91-15.45L729.91-15.45 729.91-8.85 730.31-1.3 730.36-1.3 732.51-1.05 732.46 0 723.51 0 723.46-1.05 725.61-1.3 726.06-8.85 726.06-13.3Q726.06-15.2 725.04-16.23 724.01-17.25 721.81-17.25 719.61-17.25 717.36-15.45L717.36-15.45 717.11-11.05 717.11-8.85 717.51-1.3 717.56-1.3 719.71-1.05 719.66 0 711.36 0 711.31-0.95 712.81-1.3 713.26-8.85 713.26-11.05 712.81-18.6 711.11-18.95 711.16-19.9 717.61-20.45 717.46-18.15Q720.76-20.7 724.01-20.7 727.26-20.7 728.96-17.85L728.96-17.85Q732.91-20.7 736.66-20.7L736.66-20.7Q739.46-20.7 741.09-18.78 742.71-16.85 742.71-13.5L742.71-13.5 742.71-8.85 743.11-1.3 743.16-1.3 744.61-0.95ZM757.76 0.75Q753.76 0.75 751.18-2 748.61-4.75 748.61-9.63 748.61-14.5 751.26-17.6 753.91-20.7 758.28-20.7 762.66-20.7 764.76-18.7 766.86-16.7 766.86-12.45L766.86-12.45Q766.86-11.25 766.71-9.9L766.71-9.9 752.91-9.9Q752.91-6.35 754.46-4.2 756.01-2.05 758.91-2.05 761.81-2.05 764.71-4.25L764.71-4.25 765.06-6.3 765.91-6.25 766.26 0.7 765.46 0.7 765.01-0.45Q761.76 0.75 757.76 0.75ZM753.01-12.5L753.01-12.5 762.71-12.55Q762.71-15.4 761.61-16.65 760.51-17.9 758.16-17.9L758.16-17.9Q753.51-17.9 753.01-12.5ZM765.96-29.4L756.66-24.05 755.86-24.8 760.41-30.7Q761.76-31 763.36-31 764.96-31 765.91-30.3L765.91-30.3 765.96-29.4ZM771.91 0.05L771.91 0.05 771.11 1.05 770.36 0.8 772.41-5.35 773.21-5.2 773.01-3.15Q775.56-2.05 777.66-2.05 779.76-2.05 780.86-2.8 781.96-3.55 781.96-4.8 781.96-6.05 780.81-6.88 779.66-7.7 778.01-8.33 776.36-8.95 774.73-9.7 773.11-10.45 771.96-11.8 770.81-13.15 770.81-15.33 770.81-17.5 773.21-19.1 775.61-20.7 779.31-20.7L779.31-20.7Q781.46-20.7 783.66-20.15L783.66-20.15 784.11-21.3 784.91-21.3 784.61-14.6 783.76-14.65 783.51-16.5Q780.06-18 777.96-18L777.96-18Q774.51-18 774.51-15.7L774.51-15.7Q774.51-14.7 775.68-13.95 776.86-13.2 778.51-12.6 780.16-12 781.81-11.25 783.46-10.5 784.63-9.1 785.81-7.7 785.81-5.75L785.81-5.75Q785.81-2.8 783.36-1.03 780.91 0.75 776.86 0.75L776.86 0.75Q774.61 0.75 771.91 0.05Z" opacity="1" transform="matrix(1,0,0,1,0,0)" fill="#ffffff" class="slogan-text-1" data-fill-palette-color="secondary" id="text-1"></path></svg></g></svg></g></svg></g></svg></g><g transform="matrix(1,0,0,1,63.33978008342444,0)"><svg viewBox="0 0 117.7517998331511 107.818025635793" height="107.818025635793" width="117.7517998331511"><g><svg xmlns="http://www.w3.org/2000/svg" xmlns:xlink="http://www.w3.org/1999/xlink" version="1.1" x="0" y="0" viewBox="2.0121163380141267 6.058999999999999 95.97788366198587 87.881" enable-background="new 0 0 100 100" xml:space="preserve" height="107.818025635793" width="117.7517998331511" class="icon-icon-0" data-fill-palette-color="accent" id="icon-0"><g fill="#383961" data-fill-palette-color="accent"><path d="M69.83 64.801A1.926 1.926 0 0 0 67.133 65.193C62.89 70.875 56.629 74.133 49.954 74.133 43.33 74.133 37.1 70.914 32.86 65.303A1.926 1.926 0 0 0 30.161 64.928 1.926 1.926 0 0 0 29.785 67.627C34.76 74.211 42.111 77.987 49.954 77.987 57.856 77.987 65.243 74.163 70.221 67.497A1.926 1.926 0 0 0 69.83 64.801" fill="#ffffff" data-fill-palette-color="accent"></path><circle cx="39.992" cy="49.429" r="7.8" fill="#ffffff" data-fill-palette-color="accent"></circle><path d="M60.006 57.201A7.772 7.772 0 1 0 60.008 41.659 7.772 7.772 0 0 0 60.006 57.2" fill="#ffffff" data-fill-palette-color="accent"></path><path d="M96.538 17.859L50.477 6.119C50.164 6.039 49.837 6.039 49.525 6.119L3.462 17.859A1.927 1.927 0 0 0 3.462 21.593L23.985 26.824V30.757C20.716 35.723 17.957 41.904 15.725 49.31 12.061 61.475 8.763 75.212 16.072 84.257 20.97 90.32 33.028 93.939 48.327 93.94H48.328C60.067 93.94 76.271 91.444 83.306 84.409 92.091 75.625 87.288 60.401 83.782 49.286 81.426 41.819 78.624 35.639 75.366 30.688V26.991L89.285 23.442V36.786L86.589 41.455A1.444 1.444 0 0 0 87.84 43.623H93.641A1.444 1.444 0 0 0 94.768 41.274L92.176 36.787V22.707L96.539 21.595C97.393 21.378 97.99 20.609 97.99 19.728S97.392 18.077 96.538 17.859M80.105 50.446C84.114 63.15 87.166 75.098 80.581 81.684 75.556 86.709 62.594 90.086 48.327 90.086 34.392 90.085 23.181 86.924 19.069 81.835 12.942 74.252 16.035 61.644 19.416 50.422 21.523 43.427 24.111 37.63 27.155 33.006 30.005 32.474 39.599 30.834 49.675 30.834 61.596 30.834 69.863 32.455 72.236 32.981 75.263 37.594 77.882 43.397 80.105 50.446M27.84 28.394V26.896C31.332 26.271 40.296 24.85 49.675 24.85 60.563 24.85 68.422 26.206 71.511 26.842V28.892C67.837 28.173 60.161 26.981 49.675 26.981 42.393 26.981 35.491 27.784 30.941 28.464z" fill="#ffffff" data-fill-palette-color="accent"></path></g></svg></g></svg></g><g></g></svg></g></svg></g><g><path d="M161.814 37.007A93.757 93.757 0 0 1 233.706 37.007L229.806 37.007A89.858 89.858 0 0 0 165.714 37.007L161.814 37.007M161.814 210.193A93.757 93.757 0 0 0 233.706 210.193L229.806 210.193A89.858 89.858 0 0 1 165.714 210.193L161.814 210.193" fill="#ffffff" stroke="transparent" data-fill-palette-color="tertiary"></path></g></svg></g><defs></defs></svg><rect width="395.52" height="247.2" fill="none" stroke="none" visibility="hidden"></rect></g></svg></g></svg>